
<svg width="800" height="320" xmlns="http://www.w3.org/2000/svg">
  <rect width="800" height="320" fill="#000000" rx="10"/>
  <text x="40" y="55" font-family="monospace" font-size="32" fill="#ffffff">444</text>
  <text x="40" y="80" font-family="monospace" font-size="14" fill="#ffffff">LINES OF CODE</text>
  <text x="760" y="55" font-family="monospace" font-size="24" fill="#ffffff" text-anchor="end">0</text>
  <text x="760" y="75" font-family="monospace" font-size="12" fill="#ffffff" text-anchor="end">FILES</text>
  <line x1="30" y1="100" x2="770" y2="100" stroke="#30363d" stroke-width="1"/>
  <text x="40" y="130" font-family="monospace" font-size="16" fill="#ff4444">TOP LANGUAGES</text>

  <text x="40" y="160" font-family="monospace" font-size="13" fill="#ffffff">Python</text>
  <rect x="180" y="148" width="450" height="16" fill="#21262d" rx="4"/>
  <rect x="180" y="148" width="450.0" height="16" fill="#ff4444" rx="4"/>
  <text x="650" y="160" font-family="monospace" font-size="12" fill="#ffffff">354</text>

  <text x="40" y="185" font-family="monospace" font-size="13" fill="#ffffff">HTML</text>
  <rect x="180" y="173" width="450" height="16" fill="#21262d" rx="4"/>
  <rect x="180" y="173" width="111.86440677966102" height="16" fill="#ff4444" rx="4"/>
  <text x="650" y="185" font-family="monospace" font-size="12" fill="#ffffff">88</text>

  <text x="40" y="210" font-family="monospace" font-size="13" fill="#ffffff">INI</text>
  <rect x="180" y="198" width="450" height="16" fill="#21262d" rx="4"/>
  <rect x="180" y="198" width="2.542372881355932" height="16" fill="#ff4444" rx="4"/>
  <text x="650" y="210" font-family="monospace" font-size="12" fill="#ffffff">2</text>
</svg>